PathFileType	4	(X/Y/Z)	C:\Users\WrightLab\Desktop\Jo\P1.2Trial11.trc
DataRate	CameraRate	NumFrames	NumMarkers	Units	OrigDataRate	OrigDataStartFrame	OrigNumFrames
100.00	100.00	       19	19	mm	100.00	713	       814
Frame#	Time	Headset_Front			Headset_Back			Headset_Left			Headset_Right			Left_Shoulder			Right_Shoulder			Sternum			C7			Left Elbow			Right Elbow			Left Wrist			Right Wrist			Left ASIS			Right ASIS			S2			Left Knee			Right Knee			Left Ankle			Right Ankle			
		X1	Y1	Z1	X2	Y2	Z2	X3	Y3	Z3	X4	Y4	Z4	X5	Y5	Z5	X6	Y6	Z6	X7	Y7	Z7	X8	Y8	Z8	X9	Y9	Z9	X10	Y10	Z10	X11	Y11	Z11	X12	Y12	Z12	X13	Y13	Z13	X14	Y14	Z14	X15	Y15	Z15	X16	Y16	Z16	X17	Y17	Z17	X18	Y18	Z18	X19	Y19	Z19	

713	7.120	-454.64261	1379.18042	-1001.65369	-628.13831	1468.78857	-887.75488	-678.61835	1409.55774	-1039.63513	-504.67920	1345.59033	-1141.74561	-822.95398	1202.23523	-963.76068	-402.46194	1209.31006	-899.89673	-589.94232	1137.90063	-1058.14270	-633.70978	1257.26941	-828.76965	-907.69037	942.13062	-864.13007	-305.25931	972.31812	-842.81616	-1045.08923	761.46075	-931.91364	-170.48430	757.05298	-907.62164							-665.29291	855.86182	-784.87897				-469.68643	380.13501	-886.05121							
714	7.130	-455.14398	1376.09937	-1012.29816	-628.62012	1467.08179	-897.82397	-677.07703	1408.65869	-1049.98682				-822.41895	1200.67188	-975.17682	-402.96805	1207.29675	-907.03461	-588.50476	1136.93799	-1068.57947	-632.80310	1255.47021	-839.29004	-909.37341	942.14063	-875.21509	-305.76370	970.83258	-847.85815	-1045.60461	760.60919	-941.45233	-170.75447	755.29755	-910.48950							-664.48212	853.45819	-797.01276				-468.79752	379.44400	-894.84100							
715	7.140	-452.94598	1376.66565	-1020.82190	-627.64221	1465.78235	-907.32013	-675.53833	1407.85559	-1060.38586				-822.25183	1199.68970	-987.10168	-403.02930	1205.82776	-915.38593	-587.35828	1135.88220	-1079.41858	-634.80084	1254.23743	-850.40222	-906.80701	940.80957	-886.19604	-307.56329	969.32849	-853.94611	-1045.14661	759.19055	-951.42114	-172.43022	752.88562	-912.26276							-665.50555	851.80322	-808.46350				-467.94675	377.84311	-901.94519							
716	7.150	-452.66394	1374.97546	-1028.01672	-628.79456	1465.02795	-917.08868							-821.67902	1198.71045	-999.05573	-402.60107	1204.02869	-923.63647	-589.47864	1135.65540	-1092.62061	-634.61798	1251.75000	-859.91681	-908.39172	940.09949	-898.01721	-309.81427	967.92468	-859.10535	-1044.79236	758.50012	-963.60010	-173.35657	750.75177	-912.91174							-665.82947	850.78540	-820.55798				-466.42957	375.98831	-910.71893							
717	7.160	-450.82434	1373.99817	-1035.02014	-628.44226	1462.73096	-926.58588	-672.46710	1406.28125	-1081.50073				-821.65094	1197.37561	-1010.47339	-402.67480	1202.51123	-931.54291	-584.81976	1134.27734	-1101.01868	-634.90906	1250.76465	-871.37982	-906.77100	939.16254	-909.16895	-312.07825	966.49030	-864.96191	-1044.27869	757.32458	-975.12201	-175.69354	747.73895	-914.56958	-697.06592	820.57019	-1136.98022				-666.91333	848.56140	-835.98364				-465.28534	375.56979	-919.19531							
718	7.170	-451.23624	1372.11572	-1046.39709	-628.35168	1461.87537	-936.63757	-670.83759	1405.88965	-1092.20361				-820.68829	1196.83032	-1023.52307	-403.32651	1200.71436	-938.09613	-583.45990	1133.82385	-1112.10315	-636.78131	1249.93555	-881.95654	-907.99854	937.82770	-921.65039	-315.65051	964.80371	-869.62012	-1041.40588	755.01855	-986.93469	-176.78465	746.84998	-915.11823	-433.09537	675.00189	-780.70203				-667.65491	847.31671	-849.22559				-464.04901	374.10764	-928.48578							
719	7.180	-449.54880	1371.45251	-1054.72534	-629.09094	1460.57690	-946.64703	-669.15302	1405.65173	-1103.15259				-820.75085	1196.13623	-1036.15747	-403.95148	1200.14233	-947.08917	-582.08313	1133.52148	-1123.40405	-637.84857	1247.69067	-892.30865	-906.61816	937.23657	-934.36145	-320.39694	962.66553	-880.24811	-1039.97644	753.52673	-1000.33575	-180.02498	744.92737	-916.91711							-667.83661	845.26465	-859.18658				-462.34720	373.80759	-938.09985							
720	7.190	-484.52539	1341.47998	-1204.32373	-628.38928	1459.74988	-956.46924	-667.44952	1405.65955	-1113.70898				-819.95734	1195.06726	-1049.14539	-405.26547	1200.71143	-959.35553	-587.74231	1131.62366	-1141.57532	-637.56488	1246.46667	-903.55310	-906.91199	936.34985	-947.39276	-323.19318	961.69196	-884.02142	-1038.35486	751.61853	-1014.04492	-183.55196	742.83490	-917.84308	-691.50708	819.21002	-1175.94604				-668.65509	844.20331	-871.36145				-460.33047	372.97626	-947.52264							
721	7.200	-481.90033	1342.18176	-1212.46021	-629.29291	1459.89209	-966.51892	-665.42902	1406.47205	-1124.56177				-819.21472	1194.48804	-1062.71008	-405.01279	1199.66943	-965.28333	-585.22418	1131.71936	-1153.81909	-639.63171	1246.82837	-915.92560	-906.65552	935.29742	-961.23798	-326.94183	960.78723	-887.97675	-1036.26697	749.80054	-1027.77124	-187.82967	741.33301	-918.86102							-670.68854	843.83630	-883.72528				-459.18454	372.09470	-956.62750							
722	7.210	-479.09387	1343.03064	-1219.91809	-629.68787	1459.47791	-976.76813	-663.39203	1407.39929	-1135.61890				-818.75488	1194.45056	-1076.46997	-405.10049	1198.96313	-972.01123	-583.10345	1132.23596	-1163.81409	-640.97601	1245.16394	-925.83929	-905.23383	934.80957	-975.28223	-329.60153	960.81848	-892.76270	-1033.98535	748.22443	-1042.97510	-191.44997	740.06445	-920.38391	-686.72638	819.52478	-1202.19128	-573.77686	766.36609	-869.76587	-671.85706	842.57739	-900.15979				-457.41953	370.85446	-965.64185							
723	7.220	-476.99286	1342.13245	-1220.85852				-661.28516	1408.64563	-1147.15015				-817.89600	1193.90076	-1090.43188	-405.71927	1200.92639	-984.07556	-581.75244	1131.38269	-1174.28821	-642.92279	1246.48010	-938.79437	-905.48346	934.59924	-990.22015	-334.55551	960.18542	-898.77979				-196.36026	738.89331	-921.06812				-572.48523	765.36462	-882.31604	-674.67786	841.47449	-910.02747				-455.24716	371.06961	-976.04425				-544.27362	80.58643	-771.15472	
724	7.230	-473.40445	1343.15894	-1227.97229	-629.33954	1460.08118	-997.43024	-659.10767	1410.03015	-1158.66785				-817.34479	1194.07397	-1104.76831	-407.24393	1200.11633	-989.79340	-579.30139	1132.98914	-1184.17175	-643.37787	1246.16882	-948.70514	-904.73395	933.63306	-1005.78900	-340.05472	959.66010	-904.80786				-203.28555	736.97766	-922.56226							-674.33734	843.08777	-919.23291				-451.61172	371.88193	-987.65106				-540.56824	85.01449	-775.00739	
725	7.240	-470.94193	1344.36218	-1233.57056				-656.86902	1411.40063	-1169.68445				-815.87421	1194.67627	-1118.75647	-406.73636	1202.29761	-998.53784	-576.20331	1134.69263	-1195.20349	-645.17767	1248.08911	-960.68872	-902.95648	933.48413	-1022.03174	-343.02905	960.69891	-909.16003				-207.28087	737.48450	-923.35815							-675.85028	843.51001	-931.17920				-448.58646	371.27911	-997.73077				-539.16595	88.66930	-782.80438	
726	7.250	-467.75797	1345.57690	-1239.45288				-654.54303	1412.87842	-1180.85449				-814.03473	1194.49634	-1132.65637	-407.56125	1202.32996	-1002.33270	-574.01294	1135.59058	-1205.67432	-644.60834	1248.49060	-971.93756	-901.37366	932.68518	-1038.10449	-347.81119	962.51355	-915.10016				-214.80698	736.29004	-925.76398	-430.19730	813.65674	-1133.64563				-676.08752	845.05280	-944.12512				-450.92700	368.44183	-1015.49561				-533.56323	93.45070	-789.11829	
727	7.260	-464.58997	1346.86914	-1245.10596				-652.10590	1414.57251	-1191.83984				-812.35565	1196.02673	-1146.92664	-408.51187	1204.44263	-1012.49768	-571.11066	1136.62317	-1214.41016	-646.29797	1250.38000	-983.49091	-900.42944	933.02850	-1055.07861	-353.06372	962.03253	-923.75275				-221.44044	736.11481	-926.56793	-428.29297	815.14966	-1144.03992				-678.29370	847.06073	-954.85822				-447.22729	370.46545	-1029.98352				-531.94269	98.12350	-798.97418	
728	7.270	-462.24716	1349.72095	-1253.71375										-810.24536	1197.23596	-1161.08911	-408.24295	1207.49609	-1023.91974	-567.65070	1139.81738	-1225.22900	-647.03058	1251.98718	-994.67615	-898.36456	933.16681	-1072.30566	-356.84818	964.82104	-927.56403				-228.45602	736.27637	-929.29761	-428.83548	816.96283	-1150.97559				-678.92542	849.00293	-965.75415				-443.00003	371.78677	-1042.31213				-528.75354	103.71920	-807.75647	
729	7.280													-808.07715	1199.42151	-1176.36584	-407.41534	1209.05957	-1028.10852	-564.70410	1139.85400	-1234.17261	-647.84406	1254.00940	-1006.01770	-897.03693	931.87323	-1097.37500	-361.55405	967.13226	-933.63397				-234.65172	737.12115	-931.67004	-428.18042	817.12177	-1157.62390				-679.32471	850.77734	-976.63782				-439.31378	373.31339	-1054.22876				-526.68451	108.37882	-819.82733	
730	7.290													-805.50415	1200.56018	-1189.46484	-407.45724	1211.85205	-1037.15735	-561.17096	1141.35632	-1243.73743	-647.28662	1255.36523	-1017.06146	-894.94281	933.40057	-1112.95544	-364.94907	968.66937	-939.87750				-241.51805	737.97089	-933.72028	-426.68982	819.14453	-1166.80713				-680.02203	854.10181	-988.08545				-433.78683	374.12961	-1069.07104				-525.62646	112.89069	-833.27612	
731	7.300													-802.63861	1202.47351	-1203.41870	-407.80573	1212.27979	-1039.26843	-552.29401	1147.42688	-1253.61108	-648.30493	1257.23376	-1027.47583	-892.15265	934.26923	-1127.01575	-368.77222	970.88568	-943.81061				-248.53847	738.50098	-937.16754	-425.45380	821.34326	-1174.85413				-679.45215	855.32581	-997.82556				-429.51434	377.07639	-1084.53931				-523.20654	118.00381	-846.23206	
